<svg xmlns="http://www.w3.org/2000/svg" xmlns:xlink="http://www.w3.org/1999/xlink" width="178" height="178" viewBox="0 0 178 178"><defs><style>.a{fill:url(#a);}.b,.i{fill:#4cb944;}.c{fill:#f9d7d8;opacity:0.26;}.d{opacity:0.17;}.e,.f{fill:#da2129;}.f{opacity:0.24;}.g{fill:#f5bb2e;opacity:0.37;}.h{fill:#f7e0de;}.i{opacity:0.29;}.j{fill:#f8cfd0;}.k{fill:#ed1c24;}.l,.r{fill:none;}.l,.q{stroke:#fff;}.m{opacity:0.44;clip-path:url(#d);}.n{clip-path:url(#g);}.o{opacity:0.31;}.p,.q{fill:#fff;}.q{stroke-linecap:round;stroke-linejoin:round;stroke-miterlimit:10;stroke-width:0.4px;}.r{stroke:#202020;}.s{filter:url(#e);}.t{filter:url(#b);}</style><linearGradient id="a" x1="0.098" x2="1.01" y2="0.993" gradientUnits="objectBoundingBox"><stop offset="0" stop-color="#f4444c"/><stop offset="1" stop-color="#da2129"/></linearGradient><filter id="b" x="90.255" y="100.757" width="76.427" height="76.427" filterUnits="userSpaceOnUse"><feOffset dx="4" dy="6" input="SourceAlpha"/><feGaussianBlur stdDeviation="6" result="c"/><feFlood flood-color="#6dd400" flood-opacity="0.059"/><feComposite operator="in" in2="c"/><feComposite in="SourceGraphic"/></filter><clipPath id="d"><rect class="a" width="178" height="178" rx="89" transform="translate(0 0)"/></clipPath><filter id="e" x="90.255" y="101.023" width="76.427" height="76.427" filterUnits="userSpaceOnUse"><feOffset dx="4" dy="6" input="SourceAlpha"/><feGaussianBlur stdDeviation="6" result="f"/><feFlood flood-color="#6dd400" flood-opacity="0.059"/><feComposite operator="in" in2="f"/><feComposite in="SourceGraphic"/></filter><clipPath id="g"><g class="t" transform="matrix(1, 0, 0, 1, 0, 0)"><circle class="b" cx="20.214" cy="20.214" r="20.214"/></g></clipPath></defs><g transform="translate(-107.496 -231.496)"><rect class="c" width="178" height="178" rx="89" transform="translate(107.496 231.496)"/><g transform="translate(138.11 254.635)"><g class="d" transform="translate(26.205 61.655) rotate(90)"><circle class="e" cx="1.01" cy="1.01" r="1.01" transform="translate(0 0)"/><circle class="e" cx="1.01" cy="1.01" r="1.01" transform="translate(7.07 0)"/><path class="e" d="M2.02,1.01A1.01,1.01,0,1,1,1.01,0,1.01,1.01,0,0,1,2.02,1.01Z" transform="translate(14.14 0)"/><path class="e" d="M2.02,1.01A1.01,1.01,0,1,1,1.01,0,1.01,1.01,0,0,1,2.02,1.01Z" transform="translate(21.21 0)"/><circle class="e" cx="1.01" cy="1.01" r="1.01" transform="translate(28.28 0)"/><circle class="e" cx="1.01" cy="1.01" r="1.01" transform="translate(35.35 0)"/><path class="e" d="M2.02,1.01A1.01,1.01,0,1,1,1.01,0,1.01,1.01,0,0,1,2.02,1.01Z" transform="translate(0 7.07)"/><path class="e" d="M2.02,1.01A1.01,1.01,0,1,1,1.01,0,1.01,1.01,0,0,1,2.02,1.01Z" transform="translate(7.07 7.07)"/><path class="e" d="M2.02,1.01A1.01,1.01,0,1,1,1.01,0,1.01,1.01,0,0,1,2.02,1.01Z" transform="translate(14.14 7.07)"/><path class="e" d="M2.02,1.01A1.01,1.01,0,1,1,1.01,0,1.01,1.01,0,0,1,2.02,1.01Z" transform="translate(21.21 7.07)"/><path class="e" d="M2.02,1.01A1.01,1.01,0,1,1,1.01,0,1.01,1.01,0,0,1,2.02,1.01Z" transform="translate(28.28 7.07)"/><path class="e" d="M2.02,1.01A1.01,1.01,0,1,1,1.01,0,1.01,1.01,0,0,1,2.02,1.01Z" transform="translate(35.35 7.07)"/><path class="e" d="M2.02,1.01A1.01,1.01,0,1,1,1.01,0,1.01,1.01,0,0,1,2.02,1.01Z" transform="translate(0 14.14)"/><path class="e" d="M2.02,1.01A1.01,1.01,0,1,1,1.01,0,1.01,1.01,0,0,1,2.02,1.01Z" transform="translate(7.07 14.14)"/><path class="e" d="M2.02,1.01A1.01,1.01,0,1,1,1.01,0,1.01,1.01,0,0,1,2.02,1.01Z" transform="translate(14.14 14.14)"/><path class="e" d="M2.02,1.01A1.01,1.01,0,1,1,1.01,0,1.01,1.01,0,0,1,2.02,1.01Z" transform="translate(21.21 14.14)"/><path class="e" d="M2.02,1.01A1.01,1.01,0,1,1,1.01,0,1.01,1.01,0,0,1,2.02,1.01Z" transform="translate(28.28 14.14)"/><path class="e" d="M2.02,1.01A1.01,1.01,0,1,1,1.01,0,1.01,1.01,0,0,1,2.02,1.01Z" transform="translate(35.35 14.14)"/><circle class="e" cx="1.01" cy="1.01" r="1.01" transform="translate(0 21.21)"/><circle class="e" cx="1.01" cy="1.01" r="1.01" transform="translate(7.07 21.21)"/><path class="e" d="M2.02,1.01A1.01,1.01,0,1,1,1.01,0,1.01,1.01,0,0,1,2.02,1.01Z" transform="translate(14.14 21.21)"/><path class="e" d="M2.02,1.01A1.01,1.01,0,1,1,1.01,0,1.01,1.01,0,0,1,2.02,1.01Z" transform="translate(21.21 21.21)"/><circle class="e" cx="1.01" cy="1.01" r="1.01" transform="translate(28.28 21.21)"/><circle class="e" cx="1.01" cy="1.01" r="1.01" transform="translate(35.35 21.21)"/></g><path class="f" d="M3.255,4.415.24,1.4A.82.82,0,0,1,1.4.24L4.415,3.255,7.429.24A.821.821,0,1,1,8.589,1.4L5.575,4.415,8.589,7.429a.821.821,0,0,1-1.16,1.16L4.415,5.575,1.4,8.59A.82.82,0,1,1,.24,7.429Z" transform="translate(88.325 31.235) rotate(45)"/><path class="g" d="M3083.295,817.7l-2.519-2.519a.686.686,0,0,1,.97-.97l2.518,2.519,2.519-2.519a.686.686,0,0,1,.97.97l-2.519,2.519,2.519,2.519a.686.686,0,0,1-.97.97l-2.519-2.519-2.518,2.519a.686.686,0,0,1-.97-.97Z" transform="translate(-3076.446 -706.793)"/><g transform="translate(59.335 0)"><path class="h" d="M2837.741,798.021a1.338,1.338,0,1,1,1.892-1.892,5.445,5.445,0,0,0,7.7-7.7,1.338,1.338,0,0,1,1.892-1.892,8.121,8.121,0,1,1-11.485,11.484Zm10.079-10.079a6.133,6.133,0,1,1-8.672,8.674.65.65,0,0,0-.919.918,7.432,7.432,0,0,0,10.51-10.51.649.649,0,1,0-.919.918Z" transform="translate(-2837.35 -786.146)"/></g><path class="i" d="M0,18.576A9.288,9.288,0,0,0,9.288,9.288,9.288,9.288,0,0,0,0,0Z" transform="translate(6.567 53.068) rotate(-135)"/><path class="j" d="M70.618,89.614l-5-56.666a8.168,8.168,0,0,0-8.18-7.49,1.788,1.788,0,0,0-1.786,1.786v8.835a1.679,1.679,0,0,1-1.534,1.694,1.642,1.642,0,0,1-1.751-1.638V17.041a17.041,17.041,0,1,0-34.082,0v8.418H13.213a8.168,8.168,0,0,0-8.18,7.49l-5,56.666a8.219,8.219,0,0,0,8.182,8.935H62.436A8.219,8.219,0,0,0,70.618,89.614ZM25.881,87.668H13.973a1.642,1.642,0,0,1,0-3.285H25.881a1.642,1.642,0,0,1,0,3.285Zm0-8.212H13.973a1.642,1.642,0,0,1,0-3.285H25.881a1.642,1.642,0,0,1,0,3.285Zm23.2-54H26.64a1.787,1.787,0,0,0-1.786,1.786v8.835a1.679,1.679,0,0,1-1.534,1.694,1.642,1.642,0,0,1-1.751-1.638V17.041a13.756,13.756,0,1,1,27.512,0Z" transform="matrix(0.985, -0.174, 0.174, 0.985, 20.175, 28.415)"/><path class="k" d="M70.618,89.614l-5-56.666a8.168,8.168,0,0,0-8.18-7.49,1.788,1.788,0,0,0-1.786,1.786v8.835a1.679,1.679,0,0,1-1.534,1.694,1.642,1.642,0,0,1-1.751-1.638V17.041a17.041,17.041,0,1,0-34.082,0v8.418H13.213a8.168,8.168,0,0,0-8.18,7.49l-5,56.666a8.219,8.219,0,0,0,8.182,8.935H62.436A8.219,8.219,0,0,0,70.618,89.614ZM25.881,87.668H13.973a1.642,1.642,0,0,1,0-3.285H25.881a1.642,1.642,0,0,1,0,3.285Zm0-8.212H13.973a1.642,1.642,0,0,1,0-3.285H25.881a1.642,1.642,0,0,1,0,3.285Zm23.2-54H26.64a1.787,1.787,0,0,0-1.786,1.786v8.835a1.679,1.679,0,0,1-1.534,1.694,1.642,1.642,0,0,1-1.751-1.638V17.041a13.756,13.756,0,1,1,27.512,0Z" transform="matrix(0.985, -0.174, 0.174, 0.985, 12.676, 28.415)"/><path class="l" d="M3379.622-1028.538c27.094,13.483,39.515-23.78,62.261-21.21" transform="translate(-3353.559 1118.886)"/></g><g transform="translate(211.752 344.253)"><g transform="translate(0 0)"><g class="s" transform="matrix(1, 0, 0, 1, -104.26, -112.76)"><circle class="b" cx="20.214" cy="20.214" r="20.214" transform="translate(104.26 113.02)"/></g><g class="n" transform="translate(0)"><g class="o" transform="translate(21.497 -6.787) rotate(90)"><circle class="p" cx="0.941" cy="0.941" r="0.941" transform="translate(0 0.809)"/><circle class="p" cx="0.941" cy="0.941" r="0.941" transform="translate(6.59 0.809)"/><path class="p" d="M1.883.942A.941.941,0,1,1,.941,0,.941.941,0,0,1,1.883.942Z" transform="translate(13.18 0.809)"/><path class="p" d="M1.883.942A.941.941,0,1,1,.941,0,.941.941,0,0,1,1.883.942Z" transform="translate(19.77)"/><circle class="p" cx="0.941" cy="0.941" r="0.941" transform="translate(25.551 0)"/><circle class="p" cx="0.941" cy="0.941" r="0.941" transform="translate(26.828 6.93)"/><path class="p" d="M1.883.942A.941.941,0,1,1,.942,0,.941.941,0,0,1,1.883.942Z" transform="translate(0 7.398)"/><path class="p" d="M1.883.942A.941.941,0,1,1,.942,0,.941.941,0,0,1,1.883.942Z" transform="translate(8.207 7.398)"/><path class="p" d="M1.883.942A.941.941,0,1,1,.941,0,.941.941,0,0,1,1.883.942Z" transform="translate(13.18 7.398)"/><path class="p" d="M1.883.942A.941.941,0,1,1,.941,0,.941.941,0,0,1,1.883.942Z" transform="translate(19.77 7.398)"/><path class="p" d="M1.883.942A.941.941,0,1,1,.942,0,.941.941,0,0,1,1.883.942Z" transform="translate(25.051 0.468)"/><path class="p" d="M1.883.942A.941.941,0,1,1,.941,0,.941.941,0,0,1,1.883.942Z" transform="translate(32.95 7.398)"/><path class="p" d="M1.883.941A.941.941,0,1,1,.942,0,.941.941,0,0,1,1.883.941Z" transform="translate(0 13.989)"/><path class="p" d="M1.883.941A.941.941,0,1,1,.942,0,.941.941,0,0,1,1.883.941Z" transform="translate(6.59 13.989)"/><path class="p" d="M1.883.941A.941.941,0,1,1,.941,0,.942.942,0,0,1,1.883.941Z" transform="translate(13.18 13.989)"/><path class="p" d="M1.883.941A.941.941,0,1,1,.941,0,.941.941,0,0,1,1.883.941Z" transform="translate(19.77 13.989)"/><path class="p" d="M1.883.941A.941.941,0,1,1,.942,0,.942.942,0,0,1,1.883.941Z" transform="translate(26.36 13.989)"/><path class="p" d="M1.883.941A.941.941,0,1,1,.941,0,.942.942,0,0,1,1.883.941Z" transform="translate(32.95 13.989)"/><circle class="p" cx="0.941" cy="0.941" r="0.941" transform="translate(0 20.579)"/><circle class="p" cx="0.941" cy="0.941" r="0.941" transform="translate(6.59 20.579)"/><path class="p" d="M1.883.941A.941.941,0,1,1,.941,0,.941.941,0,0,1,1.883.941Z" transform="translate(13.18 20.579)"/><path class="p" d="M1.883.941A.941.941,0,1,1,.941,0,.941.941,0,0,1,1.883.941Z" transform="translate(19.77 20.579)"/><circle class="p" cx="0.941" cy="0.941" r="0.941" transform="translate(26.36 20.579)"/><circle class="p" cx="0.941" cy="0.941" r="0.941" transform="translate(32.95 20.579)"/></g></g><path class="q" d="M7.751,17.326v-7.7H0V7.7H7.751V0H9.689V7.7H17.44V9.626H9.689v7.7Z" transform="translate(11.697 11.759)"/></g></g><path class="r" d="M3377.13-1113.486c-10.432-7.824-26.9-3.768-11.277,11.458s-32.747,23.144-10.456,25.242,55.717-5.246,84.352-21.409,28.889-23.119,14.1-22.81-19.209,2.266-19.209,2.266" transform="translate(-3213.955 1422.402)"/></g></svg>